<svg xmlns="http://www.w3.org/2000/svg" xmlns:xlink="http://www.w3.org/1999/xlink" width="500" zoomAndPan="magnify" viewBox="0 0 375 374.999991" height="500" preserveAspectRatio="xMidYMid meet" version="1.0"><path fill="#ffffff" d="M 187.886719 370.113281 C 174.308594 370.113281 160.582031 368.570312 146.78125 365.46875 C 90.507812 351.71875 46.527344 316.082031 22.925781 265.140625 C 17.976562 253.996094 14.199219 242.6875 10.558594 231.75 C 8.0625 221.789062 6.804688 211.730469 5.59375 202.003906 C 3.375 185.316406 4.992188 167.070312 10.546875 146.222656 C 21.457031 91.664062 57.574219 46.511719 109.628906 22.390625 C 120.773438 17.441406 132.082031 13.664062 143.015625 10.023438 C 152.976562 7.53125 163.039062 6.269531 172.765625 5.0625 C 188.28125 2.988281 204.007812 5.269531 219.214844 7.46875 C 222.300781 7.914062 225.386719 8.355469 228.460938 8.765625 C 244.628906 12.492188 258.453125 18.773438 271.835938 24.859375 C 299.671875 39.375 320.667969 58.472656 339.984375 86.789062 C 365.078125 125.683594 374.65625 167.355469 368.472656 210.65625 C 362.253906 262.84375 333.664062 308.589844 287.96875 339.460938 C 257.058594 359.769531 223.039062 370.113281 187.886719 370.113281 Z M 185.703125 5.480469 C 181.429688 5.480469 177.160156 5.714844 172.925781 6.28125 C 163.222656 7.492188 153.210938 8.75 143.375 11.207031 C 132.511719 14.835938 121.230469 18.589844 110.144531 23.515625 C 58.464844 47.460938 22.59375 92.292969 11.753906 146.507812 C 6.226562 167.230469 4.621094 185.316406 6.828125 201.855469 C 8.039062 211.558594 9.296875 221.566406 11.753906 231.40625 C 15.382812 242.269531 19.136719 253.550781 24.0625 264.636719 C 47.5 315.21875 91.199219 350.609375 147.078125 364.273438 C 196.253906 375.332031 244.753906 366.410156 287.3125 338.4375 C 332.703125 307.765625 361.105469 262.339844 367.277344 210.507812 L 367.277344 210.496094 C 373.421875 167.492188 363.894531 126.101562 338.984375 87.480469 C 319.800781 59.347656 298.941406 40.375 271.328125 25.972656 C 258.035156 19.933594 244.257812 13.664062 228.273438 9.972656 C 225.238281 9.566406 222.152344 9.121094 219.066406 8.675781 C 208.09375 7.097656 196.871094 5.480469 185.703125 5.480469 Z M 185.703125 5.480469 " fill-opacity="1" fill-rule="nonzero"/><path fill="#ffffff" d="M 184.417969 369.53125 C 183.070312 369.53125 181.652344 369.421875 180.148438 369.1875 C 163.582031 365.050781 153.421875 353.027344 146.410156 343.003906 C 131.757812 322.722656 123.355469 300.554688 119.144531 271.140625 C 115.589844 242.675781 117.550781 215.542969 125.328125 185.722656 C 139.695312 140.210938 153.535156 95.230469 164.828125 45.03125 C 165.246094 43.203125 165.65625 41.226562 166.074219 39.179688 C 169.332031 23.355469 173.800781 1.679688 195.144531 5.0625 C 211.710938 9.195312 221.867188 21.21875 228.878906 31.242188 C 243.53125 51.523438 251.9375 73.691406 256.144531 103.105469 C 261.601562 141.335938 253.074219 177.414062 245.011719 204.582031 L 245 204.609375 C 232.015625 243.550781 220.71875 284.3125 210.449219 329.21875 C 210.03125 331.042969 209.625 333.019531 209.203125 335.066406 C 206.191406 349.769531 202.128906 369.53125 184.417969 369.53125 Z M 190.847656 5.925781 C 174.171875 5.925781 170.382812 24.378906 167.285156 39.425781 C 166.863281 41.488281 166.457031 43.460938 166.027344 45.300781 C 154.71875 95.550781 140.882812 140.558594 126.511719 186.066406 C 118.785156 215.691406 116.824219 242.6875 120.367188 270.980469 C 124.539062 300.171875 132.882812 322.167969 147.410156 342.289062 C 157.78125 357.113281 167.640625 364.792969 180.394531 367.976562 C 200.539062 371.148438 204.6875 351.003906 208.007812 334.808594 C 208.425781 332.746094 208.832031 330.773438 209.265625 328.933594 C 219.535156 283.988281 230.84375 243.195312 243.839844 204.214844 C 251.851562 177.167969 260.355469 141.25 254.925781 103.265625 C 250.753906 74.0625 242.40625 52.066406 227.878906 31.945312 C 217.511719 17.121094 207.648438 9.441406 194.898438 6.257812 C 193.476562 6.035156 192.121094 5.925781 190.847656 5.925781 Z M 190.847656 5.925781 " fill-opacity="1" fill-rule="nonzero"/><path fill="#ffffff" d="M 180.246094 369.507812 C 174.320312 369.507812 168.40625 368.570312 162.765625 366.691406 C 140.277344 358.816406 122.007812 343.003906 106.925781 318.34375 C 106.183594 317.550781 106.183594 316.453125 106.183594 315.492188 C 106.183594 314.664062 106.183594 313.898438 105.75 313.453125 L 105.664062 313.34375 C 83.382812 277.695312 77.300781 235.960938 87.0625 185.757812 C 97.652344 128.066406 113.390625 68.0625 156.335938 20.058594 C 161.828125 14.566406 168.765625 10.480469 177.578125 7.542969 C 188.847656 3.789062 201.265625 3.789062 212.535156 7.542969 C 235.027344 15.417969 253.296875 31.230469 268.378906 55.890625 C 269.121094 56.683594 269.121094 57.78125 269.121094 58.742188 C 269.121094 59.570312 269.121094 60.335938 269.550781 60.78125 L 269.648438 60.902344 C 300.238281 112.351562 294.632812 170.09375 284.535156 209.484375 C 275.785156 250.734375 260.8125 290.25 240.039062 326.910156 C 234.667969 335.511719 228.398438 344.757812 218.953125 354.199219 C 211.242188 360.371094 204.117188 364.570312 197.722656 366.691406 C 192.082031 368.570312 186.171875 369.507812 180.246094 369.507812 Z M 106.675781 312.640625 C 107.417969 313.429688 107.417969 314.527344 107.417969 315.492188 C 107.417969 316.316406 107.417969 317.082031 107.851562 317.527344 L 107.9375 317.640625 C 122.871094 342.078125 140.929688 357.742188 163.160156 365.519531 C 174.171875 369.1875 186.304688 369.1875 197.328125 365.519531 C 203.574219 363.433594 210.574219 359.324219 218.128906 353.273438 C 227.433594 343.96875 233.65625 334.796875 238.976562 326.28125 C 259.675781 289.742188 274.613281 250.355469 283.328125 209.210938 L 283.328125 209.1875 C 293.363281 170.046875 298.953125 112.671875 268.613281 61.59375 C 267.871094 60.804688 267.871094 59.71875 267.871094 58.742188 C 267.871094 57.917969 267.871094 57.152344 267.441406 56.707031 L 267.355469 56.59375 C 252.417969 32.15625 234.359375 16.492188 212.128906 8.714844 C 201.117188 5.046875 188.984375 5.046875 177.960938 8.714844 C 169.332031 11.589844 162.542969 15.578125 157.222656 20.910156 C 114.503906 68.65625 98.839844 128.472656 88.273438 185.992188 C 78.582031 235.863281 84.59375 277.289062 106.675781 312.640625 Z M 106.675781 312.640625 " fill-opacity="1" fill-rule="nonzero"/><path fill="#ffffff" d="M 179.589844 369.570312 C 176.503906 369.570312 173.40625 369.445312 170.308594 369.1875 C 148.4375 367.410156 127.921875 359.433594 109.355469 345.460938 C 92.65625 332.894531 77.707031 315.378906 66.140625 294.816406 C 35.34375 236.777344 34.886719 166.835938 64.882812 102.921875 C 65.535156 101.625 66.488281 100.339844 67.410156 99.105469 C 68.300781 97.910156 69.226562 96.6875 69.820312 95.503906 C 81.855469 68.890625 101.046875 45.238281 123.859375 28.933594 C 148.953125 10.984375 177.011719 2.726562 204.96875 5.0625 C 226.84375 6.839844 247.359375 14.8125 265.921875 28.785156 C 282.625 41.351562 297.570312 58.867188 309.136719 79.429688 C 330.035156 117.734375 336.886719 163.109375 328.960938 210.667969 C 326.382812 232.578125 318.519531 252.761719 310.398438 271.3125 C 309.742188 272.621094 308.78125 273.90625 307.855469 275.140625 C 306.964844 276.335938 306.039062 277.558594 305.445312 278.742188 C 293.410156 305.355469 274.21875 329.007812 251.40625 345.3125 C 229.101562 361.273438 204.453125 369.570312 179.589844 369.570312 Z M 195.710938 5.898438 C 171.109375 5.898438 146.707031 14.121094 124.601562 29.933594 C 101.960938 46.128906 82.914062 69.59375 70.953125 96.035156 C 70.300781 97.34375 69.351562 98.613281 68.410156 99.847656 C 67.523438 101.046875 66.597656 102.265625 66.003906 103.453125 C 36.183594 166.996094 36.628906 236.527344 67.226562 294.210938 C 91.703125 337.734375 129.328125 364.617188 170.417969 367.953125 C 198.09375 370.261719 225.855469 362.074219 250.703125 344.300781 C 273.339844 328.105469 292.386719 304.640625 304.347656 278.199219 C 305.003906 276.890625 305.953125 275.621094 306.890625 274.386719 C 307.78125 273.1875 308.707031 271.96875 309.296875 270.78125 C 317.359375 252.339844 325.195312 232.257812 327.753906 210.507812 L 327.753906 210.484375 C 335.628906 163.195312 328.824219 118.089844 308.0625 80.035156 C 283.574219 36.511719 245.964844 9.628906 204.871094 6.296875 C 201.820312 6.023438 198.761719 5.898438 195.710938 5.898438 Z M 195.710938 5.898438 " fill-opacity="1" fill-rule="nonzero"/><path fill="#ffffff" d="M 187.480469 369.691406 C 186.960938 369.691406 186.441406 369.457031 185.984375 369 C 169.816406 351.582031 164.765625 328.910156 159.902344 306.972656 C 153.101562 279.769531 153.101562 254.230469 159.890625 221.59375 C 159.929688 220.804688 160.558594 219.851562 161.222656 218.851562 C 161.730469 218.101562 162.359375 217.160156 162.359375 216.730469 L 162.394531 216.53125 C 163 214.730469 163.308594 212.570312 163.605469 210.472656 C 163.914062 208.324219 164.234375 206.101562 164.863281 204.1875 C 166.296875 200.511719 167.742188 196.867188 169.199219 193.226562 C 178.898438 168.773438 188.933594 143.480469 193.230469 116.648438 C 195.6875 94.527344 195.6875 74.777344 193.230469 52.621094 C 192.328125 46.757812 191.242188 41.152344 190.207031 35.734375 C 188.355469 26.15625 186.613281 17.109375 185.824219 6.925781 C 185.824219 5.898438 186.390625 4.988281 187.195312 4.640625 C 187.910156 4.34375 188.699219 4.554688 189.34375 5.195312 C 205.511719 22.613281 210.5625 45.289062 215.425781 67.222656 C 222.226562 94.429688 222.226562 119.96875 215.4375 152.605469 C 215.398438 153.394531 214.769531 154.34375 214.105469 155.34375 C 213.597656 156.097656 212.96875 157.035156 212.96875 157.46875 L 212.929688 157.664062 C 212.328125 159.46875 212.019531 161.628906 211.722656 163.726562 C 211.414062 165.875 211.09375 168.09375 210.460938 170.007812 C 208.597656 173.75 207.351562 177.796875 206.140625 181.722656 C 204.921875 185.699219 203.660156 189.796875 201.785156 193.546875 L 201.773438 193.574219 C 192.132812 210.707031 186.28125 231.023438 183.332031 257.523438 C 179.863281 278.324219 179.480469 298.074219 182.097656 321.578125 C 182.996094 327.441406 184.085938 333.042969 185.121094 338.460938 C 186.972656 348.042969 188.714844 357.089844 189.503906 367.273438 C 189.503906 368.296875 188.933594 369.210938 188.132812 369.554688 C 187.921875 369.65625 187.699219 369.691406 187.480469 369.691406 Z M 163.582031 216.851562 C 163.53125 217.628906 162.902344 218.570312 162.25 219.554688 C 161.742188 220.308594 161.113281 221.246094 161.113281 221.679688 L 161.101562 221.804688 C 154.335938 254.265625 154.335938 279.65625 161.101562 306.703125 C 165.9375 328.488281 170.9375 350.992188 186.875 368.148438 C 187.15625 368.433594 187.429688 368.519531 187.664062 368.421875 C 188.007812 368.285156 188.269531 367.804688 188.269531 367.335938 C 187.492188 357.261719 185.75 348.25 183.910156 338.710938 C 182.863281 333.277344 181.777344 327.660156 180.875 321.75 C 178.246094 298.097656 178.628906 278.25 182.109375 257.363281 C 185.070312 230.738281 190.972656 210.273438 200.6875 192.992188 C 202.511719 189.339844 203.761719 185.289062 204.957031 181.378906 C 206.179688 177.402344 207.4375 173.304688 209.316406 169.550781 C 209.882812 167.835938 210.191406 165.664062 210.488281 163.566406 C 210.796875 161.441406 211.105469 159.257812 211.722656 157.367188 C 211.769531 156.589844 212.402344 155.652344 213.054688 154.664062 C 213.5625 153.914062 214.191406 152.976562 214.191406 152.542969 L 214.203125 152.417969 C 220.96875 119.957031 220.96875 94.566406 214.203125 67.519531 C 209.363281 45.734375 204.363281 23.230469 188.429688 6.074219 C 188.144531 5.800781 187.875 5.703125 187.640625 5.800781 C 187.292969 5.9375 187.035156 6.417969 187.035156 6.886719 C 187.8125 16.960938 189.550781 25.972656 191.390625 35.511719 C 192.441406 40.945312 193.527344 46.558594 194.429688 52.472656 C 196.898438 74.742188 196.898438 94.578125 194.429688 116.820312 C 190.109375 143.816406 180.046875 169.167969 170.320312 193.683594 C 168.875 197.324219 167.433594 200.964844 166 204.609375 C 165.410156 206.375 165.101562 208.546875 164.804688 210.644531 C 164.507812 212.78125 164.199219 214.964844 163.582031 216.851562 Z M 163.582031 216.851562 " fill-opacity="1" fill-rule="nonzero"/><path fill="#ffffff" d="M 187.6875 370.148438 C 175.109375 370.148438 161.59375 368.1875 146.757812 364.234375 C 92.199219 353.324219 47.046875 317.207031 22.925781 265.152344 C 17.976562 254.007812 14.199219 242.699219 10.558594 231.765625 C 8.0625 221.804688 6.804688 211.742188 5.59375 202.015625 C 3.519531 186.511719 5.804688 170.773438 8.003906 155.566406 C 8.445312 152.480469 8.890625 149.394531 9.296875 146.320312 C 13.027344 130.152344 19.308594 116.328125 25.394531 102.945312 C 39.910156 75.109375 59.007812 54.113281 87.324219 34.796875 C 126.21875 9.703125 167.890625 0.125 211.191406 6.308594 C 263.378906 12.527344 309.125 41.117188 339.996094 86.8125 C 368.152344 129.667969 377.152344 178.488281 366.003906 228.011719 C 352.253906 284.285156 316.617188 328.265625 265.675781 351.867188 C 254.53125 356.816406 243.222656 360.59375 232.285156 364.234375 C 222.324219 366.730469 212.265625 367.988281 202.539062 369.199219 C 197.722656 369.828125 192.785156 370.148438 187.6875 370.148438 Z M 185.875 5.703125 C 151.867188 5.703125 119.046875 15.789062 88 35.808594 C 59.871094 54.992188 40.898438 75.851562 26.492188 103.464844 C 20.457031 116.757812 14.1875 130.535156 10.496094 146.519531 C 10.089844 149.554688 9.644531 152.640625 9.199219 155.726562 C 7.015625 170.859375 4.753906 186.5 6.804688 201.84375 C 8.015625 211.546875 9.273438 221.554688 11.730469 231.394531 C 15.359375 242.257812 19.113281 253.539062 24.035156 264.621094 C 47.984375 316.304688 92.816406 352.175781 147.027344 363.015625 C 167.753906 368.542969 185.835938 370.148438 202.378906 367.9375 C 212.078125 366.730469 222.089844 365.46875 231.929688 363.015625 C 242.789062 359.386719 254.074219 355.632812 265.15625 350.707031 C 315.742188 327.265625 351.128906 283.570312 364.796875 227.691406 C 375.855469 178.511719 366.929688 130.015625 338.960938 87.453125 C 308.285156 42.066406 262.863281 13.664062 211.03125 7.492188 L 211.019531 7.492188 C 202.574219 6.308594 194.195312 5.703125 185.875 5.703125 Z M 185.875 5.703125 " fill-opacity="1" fill-rule="nonzero"/><path fill="#ffffff" d="M 244.679688 257.328125 C 225.609375 257.328125 206.550781 254.722656 186.257812 249.429688 C 140.746094 235.058594 95.765625 221.222656 45.5625 209.929688 C 43.738281 209.507812 41.761719 209.101562 39.714844 208.679688 C 23.886719 205.421875 2.214844 200.964844 5.59375 179.613281 C 9.730469 163.046875 21.753906 152.886719 31.777344 145.878906 C 52.054688 131.226562 74.226562 122.820312 103.640625 118.609375 C 141.867188 113.152344 177.949219 121.683594 205.117188 129.742188 L 205.140625 129.757812 C 244.085938 142.742188 284.84375 154.035156 329.75 164.304688 C 331.578125 164.726562 333.554688 165.132812 335.601562 165.554688 C 351.425781 168.8125 373.101562 173.269531 369.71875 194.621094 C 365.585938 211.1875 353.5625 221.347656 343.539062 228.355469 C 323.257812 243.007812 301.089844 251.414062 271.675781 255.625 C 262.589844 256.761719 253.628906 257.328125 244.679688 257.328125 Z M 128.476562 118.128906 C 120.390625 118.128906 112.144531 118.648438 103.800781 119.84375 C 74.597656 124.015625 52.601562 132.359375 32.480469 146.890625 C 17.65625 157.257812 9.976562 167.121094 6.792969 179.871094 C 3.621094 200.015625 23.765625 204.164062 39.960938 207.484375 C 42.019531 207.902344 43.996094 208.3125 45.835938 208.742188 C 96.085938 220.050781 141.089844 233.886719 186.601562 248.253906 C 216.226562 255.980469 243.222656 257.945312 271.515625 254.402344 C 300.707031 250.230469 322.703125 241.886719 342.824219 227.359375 C 357.648438 216.988281 365.324219 207.125 368.511719 194.375 C 371.683594 174.230469 351.539062 170.082031 335.34375 166.761719 C 333.28125 166.34375 331.308594 165.933594 329.46875 165.503906 C 284.523438 155.234375 243.730469 143.925781 204.746094 130.929688 C 183.652344 124.671875 157.152344 118.128906 128.476562 118.128906 Z M 128.476562 118.128906 " fill-opacity="1" fill-rule="nonzero"/><path fill="#ffffff" d="M 230.210938 292.210938 C 216.324219 292.210938 201.710938 290.707031 186.292969 287.707031 C 128.597656 277.113281 68.597656 261.375 20.59375 218.433594 C 15.101562 212.941406 11.015625 206.003906 8.078125 197.191406 C 4.324219 185.917969 4.324219 173.503906 8.078125 162.234375 C 15.953125 139.742188 31.761719 121.472656 56.425781 106.390625 C 57.894531 105.019531 60.363281 106.15625 61.300781 105.203125 L 61.425781 105.105469 C 112.875 74.519531 170.617188 80.121094 210.007812 90.21875 C 251.257812 98.972656 290.769531 113.945312 327.429688 134.71875 C 336.035156 140.089844 345.28125 146.359375 354.722656 155.800781 C 360.894531 163.515625 365.089844 170.636719 367.214844 177.03125 C 370.96875 188.300781 370.96875 200.71875 367.214844 211.988281 C 359.339844 234.480469 343.527344 252.75 318.863281 267.832031 C 317.394531 269.203125 314.925781 268.066406 313.988281 269.015625 L 313.878906 269.105469 C 289.191406 284.546875 261.554688 292.210938 230.210938 292.210938 Z M 62.128906 106.144531 C 60.660156 107.511719 58.203125 106.363281 57.253906 107.316406 L 57.140625 107.402344 C 32.703125 122.335938 17.039062 140.394531 9.261719 162.628906 C 5.59375 173.636719 5.59375 185.773438 9.261719 196.792969 C 12.136719 205.421875 16.125 212.210938 21.457031 217.53125 C 69.203125 260.253906 129.019531 275.917969 186.539062 286.484375 C 236.410156 296.1875 277.835938 290.160156 313.1875 268.089844 C 314.65625 266.710938 317.125 267.855469 318.074219 266.90625 L 318.1875 266.820312 C 342.625 251.882812 358.289062 233.824219 366.066406 211.59375 C 369.734375 200.585938 369.734375 188.449219 366.066406 177.425781 C 363.980469 171.179688 359.871094 164.183594 353.820312 156.628906 C 344.515625 147.320312 335.34375 141.101562 326.828125 135.78125 C 290.289062 115.078125 250.902344 100.144531 209.757812 91.429688 L 209.734375 91.429688 C 170.582031 81.394531 113.195312 75.816406 62.128906 106.144531 Z M 62.128906 106.144531 " fill-opacity="1" fill-rule="nonzero"/><path fill="#ffffff" d="M 200.21875 332.054688 C 167.925781 332.054688 134.957031 324.675781 103.457031 309.875 C 102.160156 309.21875 100.875 308.269531 99.640625 307.34375 C 98.445312 306.457031 97.222656 305.53125 96.035156 304.9375 C 69.425781 292.902344 45.773438 273.707031 29.46875 250.898438 C 11.519531 225.800781 3.261719 197.757812 5.59375 169.785156 C 7.371094 147.914062 15.347656 127.398438 29.320312 108.832031 C 41.886719 92.132812 59.402344 77.183594 79.964844 65.617188 C 118.269531 44.722656 163.644531 37.871094 211.203125 45.792969 C 233.113281 48.375 253.296875 56.238281 271.847656 64.359375 C 273.15625 65.015625 274.441406 65.976562 275.675781 66.902344 C 276.871094 67.792969 278.09375 68.71875 279.277344 69.308594 C 305.890625 81.34375 329.542969 100.539062 345.847656 123.351562 C 363.796875 148.445312 372.054688 176.488281 369.71875 204.460938 C 367.941406 226.332031 359.96875 246.847656 345.996094 265.414062 C 333.429688 282.113281 315.914062 297.0625 295.351562 308.628906 C 265.910156 324.242188 233.421875 332.054688 200.21875 332.054688 Z M 173.257812 43.820312 C 139.855469 43.820312 108.332031 51.535156 80.558594 66.691406 C 37.035156 91.183594 10.148438 128.792969 6.816406 169.886719 C 4.507812 197.558594 12.691406 225.320312 30.46875 250.167969 C 46.664062 272.808594 70.128906 291.851562 96.566406 303.8125 C 97.875 304.46875 99.148438 305.417969 100.382812 306.355469 C 101.578125 307.246094 102.800781 308.171875 103.984375 308.765625 C 167.53125 338.585938 237.0625 338.140625 294.746094 307.542969 C 338.269531 283.0625 365.152344 245.441406 368.484375 204.347656 C 370.792969 176.675781 362.609375 148.914062 344.835938 124.066406 C 328.640625 101.425781 305.175781 82.382812 278.734375 70.421875 C 277.425781 69.765625 276.15625 68.816406 274.921875 67.878906 C 273.722656 66.988281 272.5 66.0625 271.316406 65.46875 C 252.875 57.410156 232.792969 49.570312 211.042969 47.015625 L 211.019531 47.015625 C 198.230469 44.882812 185.613281 43.820312 173.257812 43.820312 Z M 173.257812 43.820312 " fill-opacity="1" fill-rule="nonzero"/><path fill="#ffffff" d="M 266.835938 219.976562 C 252.972656 219.976562 238.445312 218.285156 222.140625 214.890625 C 221.351562 214.851562 220.398438 214.222656 219.398438 213.558594 C 218.648438 213.050781 217.707031 212.421875 217.277344 212.421875 L 217.078125 212.382812 C 215.277344 211.78125 213.117188 211.472656 211.019531 211.175781 C 208.871094 210.867188 206.648438 210.546875 204.734375 209.914062 C 201.058594 208.484375 197.414062 207.039062 193.773438 205.582031 C 169.320312 195.882812 144.027344 185.847656 117.195312 181.550781 C 95.074219 179.09375 75.324219 179.09375 53.167969 181.550781 C 47.304688 182.453125 41.699219 183.539062 36.28125 184.574219 C 26.703125 186.425781 17.65625 188.167969 7.472656 188.957031 C 6.445312 188.957031 5.535156 188.386719 5.199219 187.585938 C 4.902344 186.871094 5.101562 186.082031 5.753906 185.4375 C 23.171875 169.269531 45.847656 164.21875 67.78125 159.355469 C 94.988281 152.554688 120.527344 152.554688 153.164062 159.34375 C 153.953125 159.382812 154.902344 160.011719 155.902344 160.675781 C 156.65625 161.183594 157.59375 161.8125 158.027344 161.8125 L 158.222656 161.851562 C 160.027344 162.453125 162.1875 162.761719 164.285156 163.058594 C 166.433594 163.367188 168.65625 163.6875 170.566406 164.320312 C 174.308594 166.183594 178.355469 167.429688 182.28125 168.640625 C 186.257812 169.859375 190.355469 171.121094 194.105469 172.996094 L 194.132812 173.007812 C 211.265625 182.648438 231.582031 188.5 258.085938 191.449219 C 278.882812 194.917969 298.632812 195.300781 322.136719 192.683594 C 328 191.78125 333.601562 190.695312 339.023438 189.660156 C 348.601562 187.808594 357.648438 186.066406 367.832031 185.277344 C 368.855469 185.277344 369.769531 185.847656 370.101562 186.648438 C 370.398438 187.363281 370.203125 188.152344 369.546875 188.796875 C 352.128906 204.964844 329.457031 210.015625 307.519531 214.878906 C 293.90625 218.273438 280.710938 219.976562 266.835938 219.976562 Z M 217.386719 211.1875 C 218.164062 211.238281 219.101562 211.867188 220.089844 212.519531 C 220.84375 213.027344 221.78125 213.65625 222.214844 213.65625 L 222.335938 213.667969 C 254.800781 220.433594 280.191406 220.433594 307.238281 213.667969 C 329.023438 208.828125 351.527344 203.832031 368.683594 187.894531 C 368.953125 187.609375 369.054688 187.339844 368.953125 187.105469 C 368.820312 186.757812 368.335938 186.5 367.867188 186.5 C 357.796875 187.277344 348.785156 189.019531 339.242188 190.855469 C 333.8125 191.90625 328.195312 192.992188 322.285156 193.894531 C 298.632812 196.523438 278.785156 196.140625 257.898438 192.660156 C 231.273438 189.695312 210.808594 183.796875 193.527344 174.082031 C 189.875 172.253906 185.824219 171.007812 181.910156 169.8125 C 177.9375 168.589844 173.839844 167.332031 170.085938 165.453125 C 168.371094 164.886719 166.199219 164.578125 164.101562 164.28125 C 161.976562 163.972656 159.792969 163.664062 157.902344 163.046875 C 157.125 162.996094 156.1875 162.367188 155.199219 161.714844 C 154.445312 161.207031 153.507812 160.578125 153.078125 160.578125 L 152.953125 160.566406 C 120.488281 153.800781 95.097656 153.800781 68.054688 160.566406 C 46.265625 165.40625 23.765625 170.402344 6.605469 186.339844 C 6.335938 186.625 6.238281 186.894531 6.335938 187.128906 C 6.472656 187.476562 6.953125 187.734375 7.421875 187.734375 C 17.496094 186.957031 26.503906 185.214844 36.046875 183.378906 C 41.476562 182.328125 47.09375 181.242188 53.007812 180.339844 C 75.273438 177.859375 95.109375 177.871094 117.355469 180.339844 C 144.351562 184.660156 169.703125 194.722656 194.21875 204.449219 C 197.859375 205.890625 201.5 207.335938 205.140625 208.769531 C 206.90625 209.359375 209.082031 209.667969 211.179688 209.964844 C 213.3125 210.261719 215.5 210.570312 217.386719 211.1875 Z M 217.386719 211.1875 " fill-opacity="1" fill-rule="nonzero"/></svg>